<?xml version="1.0" encoding="iso-8859-1"?>
<!-- Uploaded to: SVG Repo, www.svgrepo.com, Generator: SVG Repo Mixer Tools -->
<svg fill="#000000" height="800px" width="800px" version="1.1" id="Layer_1" xmlns="http://www.w3.org/2000/svg" xmlns:xlink="http://www.w3.org/1999/xlink" 
	 viewBox="0 0 512.001 512.001" xml:space="preserve">
<g>
	<g>
		<path d="M426.225,152.055c-0.492-0.099-1.001-0.153-1.521-0.153c-0.285,0-0.565,0.018-0.841,0.049
			c-0.947-0.029-1.896-0.049-2.85-0.049h-89.859C327.328,113.809,295.084,83.97,256,83.97c-39.085,0-71.328,29.839-75.155,67.932
			h-89.86c-0.953,0-1.902,0.019-2.849,0.049c-0.277-0.03-0.557-0.049-0.842-0.049c-0.521,0-1.029,0.053-1.521,0.153
			c-9.133,0.518-17.91,2.386-26.132,5.412c-1.493,0.134-2.859,0.701-3.978,1.573C22.987,172.855,0,205.238,0,242.889v94.155
			c0,37.737,23.095,70.178,55.891,83.943c0.999,0.72,2.177,1.201,3.457,1.367c8.657,3.221,17.933,5.158,27.596,5.582
			c0.118,0.005,0.233,0.018,0.352,0.018c0.016,0,0.032-0.002,0.049-0.002c1.209,0.048,2.421,0.079,3.641,0.079h330.027
			c1.221,0,2.433-0.031,3.642-0.079c0.016,0,0.032,0.002,0.05,0.002c0.12,0,0.236-0.012,0.355-0.018
			c9.243-0.407,18.131-2.199,26.464-5.173c0.053,0.001,0.103,0.008,0.156,0.008c2.062,0,3.93-0.824,5.299-2.156
			c32.334-13.969,55.022-46.167,55.022-83.57V242.89C512,194.468,473.979,154.765,426.225,152.055z M52.724,402.413
			c-22.423-13.175-37.516-37.536-37.516-65.369v-94.155c0-27.833,15.093-52.194,37.516-65.369V402.413z M79.693,411.977
			c-4.033-0.605-7.96-1.535-11.761-2.752V170.707c3.801-1.217,7.728-2.146,11.761-2.752V411.977z M256,99.178
			c30.688,0,56.079,23.038,59.832,52.724H302.56c-3.648-22.411-23.133-39.576-46.559-39.576c-23.426,0-42.912,17.165-46.56,39.576
			h-13.272C199.92,122.216,225.311,99.178,256,99.178z M287.052,151.902h-62.104c3.422-13.97,16.042-24.368,31.053-24.368
			S283.63,137.933,287.052,151.902z M94.899,167.11h322.2v120.629c-42.377-18.041-92.513-35.777-148.372-38.494
			c-55.446-2.694-112.414,9.797-173.829,38.143V167.11z M417.101,412.822H94.9V325.18c90.483-43.231,160.937-48.387,232.551-31.128
			v42.315c0,9.663,7.862,17.525,17.525,17.525h13.109c9.663,0,17.525-7.861,17.525-17.525v-27.66
			c13.582,4.908,27.368,10.469,41.49,16.581V412.822z M342.66,336.367v-38.324c5.893,1.668,11.802,3.472,17.743,5.418v32.906
			c0,1.256-1.062,2.317-2.317,2.317h-13.109C343.721,338.683,342.66,337.623,342.66,336.367z M417.101,308.731
			c-42.377-18.041-92.513-35.777-148.372-38.494c-55.446-2.696-112.414,9.797-173.829,38.143v-4.192
			c127.387-60.863,215.072-46.249,322.2,0.107V308.731z M444.073,409.223c-3.802,1.218-7.731,2.148-11.766,2.755V167.955
			c4.035,0.605,7.964,1.537,11.766,2.755V409.223z M496.792,337.044c0,27.831-15.091,52.188-37.51,65.365V177.523
			c22.419,13.176,37.51,37.534,37.51,65.366V337.044z"/>
	</g>
</g>
</svg>